<?xml version="1.0" encoding="UTF-8" standalone="no"?><!DOCTYPE svg PUBLIC "-//W3C//DTD SVG 1.1//EN" "http://www.w3.org/Graphics/SVG/1.1/DTD/svg11.dtd"><svg width="100%" height="100%" viewBox="0 0 313 38" version="1.1" xmlns="http://www.w3.org/2000/svg" xmlns:xlink="http://www.w3.org/1999/xlink" xml:space="preserve" style="fill-rule:evenodd;clip-rule:evenodd;stroke-linejoin:round;stroke-miterlimit:1.41421;"><path d="M25.626,7.409c0,2.964 -1.685,5.055 -5.055,6.276c1.22,0.377 2.222,0.799 3.007,1.264c2.353,1.365 3.53,3.414 3.53,6.145c0,2.673 -1.031,4.801 -3.094,6.385c-2.063,1.583 -4.823,2.375 -8.281,2.375c-1.249,0 -2.833,-0.073 -4.75,-0.218c-1.918,-0.145 -3.327,-0.218 -4.228,-0.218c-0.784,0 -1.525,0.043 -2.222,0.131l-2.049,0.261c-0.058,0 -0.16,0.015 -0.305,0.044c-0.145,0 -0.247,0 -0.305,0c-1.249,-0.029 -1.874,-0.552 -1.874,-1.569c0,-0.93 0.45,-1.395 1.351,-1.395c0.232,0 0.625,0.044 1.177,0.131c0.377,0.058 0.683,0.087 0.915,0.087c1.482,0 2.223,-1.075 2.223,-3.225l0,-17.52c0,-2.179 -0.741,-3.269 -2.223,-3.269c-0.262,0 -0.567,0.029 -0.915,0.087c-0.523,0.088 -0.915,0.131 -1.177,0.131c-0.901,0 -1.351,-0.465 -1.351,-1.394c0,-1.017 0.668,-1.526 2.005,-1.526l0.566,0l2.136,0.305c0.61,0.087 1.438,0.131 2.484,0.131c1.104,0 2.673,-0.087 4.707,-0.261c1.365,-0.117 2.833,-0.175 4.402,-0.175c2.934,0 5.222,0.618 6.864,1.852c1.641,1.235 2.462,2.957 2.462,5.165Zm-16.692,1.874c0,1.54 0.138,2.491 0.414,2.855c0.276,0.363 1.039,0.544 2.288,0.544l2.441,0c5.143,0 7.714,-1.67 7.714,-5.012c0,-3.05 -2.121,-4.576 -6.363,-4.576c-2.964,0 -4.787,0.189 -5.469,0.567c-0.683,0.378 -1.025,1.351 -1.025,2.92l0,2.702Zm0,8.847l0,4.838c0,1.888 0.32,3.051 0.959,3.486c0.639,0.436 2.383,0.654 5.23,0.654c5.433,0 8.15,-2.034 8.15,-6.101c0,-3.748 -2.615,-5.623 -7.845,-5.623l-3.617,0c-1.569,0 -2.47,0.349 -2.702,1.046c-0.117,0.349 -0.175,0.916 -0.175,1.7Z" style="fill:#f9f8f6;fill-rule:nonzero;"/><path d="M51.688,28.546l0,-1.351c-1.54,2.121 -3.82,3.182 -6.842,3.182c-3.428,0 -5.811,-1.061 -7.147,-3.182c-0.582,-0.93 -0.901,-2.019 -0.959,-3.268c-0.029,-0.611 -0.044,-1.889 -0.044,-3.836l0,-3.617c0,-3.98 -0.421,-5.971 -1.264,-5.971c-0.174,0 -0.45,0.037 -0.828,0.109c-0.378,0.073 -0.668,0.109 -0.871,0.109c-1.017,0 -1.526,-0.479 -1.526,-1.438c0,-0.93 0.625,-1.395 1.874,-1.395c0.291,0 0.719,0.029 1.286,0.088c0.566,0.058 0.995,0.087 1.286,0.087c0.261,0 0.711,-0.044 1.351,-0.131c0.435,-0.058 0.682,-0.087 0.74,-0.087c0.901,0 1.352,0.552 1.352,1.656l0,0.915l-0.044,2.833l-0.131,3.225l0,2.833c0,2.528 0.204,4.344 0.61,5.448c0.669,1.83 2.267,2.745 4.794,2.745c1.25,0 2.354,-0.283 3.313,-0.85c0.958,-0.566 1.627,-1.314 2.004,-2.244c0.465,-1.133 0.698,-3.283 0.698,-6.45l0,-2.397c0,-1.743 0,-2.688 0,-2.833c-0.146,-1.395 -0.523,-2.092 -1.133,-2.092c-0.32,0 -0.582,0.029 -0.785,0.087l-0.523,0c-1.017,0 -1.525,-0.45 -1.525,-1.351c0,-1.017 0.566,-1.525 1.699,-1.525c0.262,0 0.661,0.029 1.199,0.087c0.537,0.058 0.937,0.087 1.198,0.087c0.233,0 0.582,-0.022 1.046,-0.065c0.465,-0.044 0.814,-0.066 1.046,-0.066c0.872,0 1.308,0.465 1.308,1.395c0,0.407 -0.029,0.726 -0.087,0.959c-0.146,1.104 -0.218,2.731 -0.218,4.881l0,6.712c0,1.772 0.014,2.76 0.043,2.963c0.146,1.54 0.552,2.31 1.221,2.31c0.203,0 0.494,-0.036 0.871,-0.109c0.378,-0.073 0.669,-0.109 0.872,-0.109c0.988,0 1.482,0.48 1.482,1.438c0,0.988 -0.61,1.482 -1.831,1.482c-0.261,0 -0.639,-0.029 -1.133,-0.087c-0.726,-0.087 -1.177,-0.131 -1.351,-0.131c-0.087,0 -0.392,0.029 -0.915,0.087c-0.349,0.088 -0.654,0.131 -0.915,0.131c-0.814,0 -1.221,-0.421 -1.221,-1.264Z" style="fill:#f9f8f6;fill-rule:nonzero;"/><path d="M76.443,15.254c0,-1.162 0.726,-1.831 2.179,-2.005c-0.145,-1.017 -0.632,-1.816 -1.46,-2.397c-0.828,-0.581 -1.896,-0.872 -3.203,-0.872c-2.005,0 -3.618,0.799 -4.838,2.397c-1.22,1.598 -1.83,3.719 -1.83,6.363c0,2.731 0.574,4.874 1.721,6.429c1.148,1.554 2.739,2.331 4.772,2.331c1.279,0 2.39,-0.363 3.335,-1.089c0.944,-0.727 1.59,-1.729 1.939,-3.007c0.29,-1.017 0.465,-1.598 0.523,-1.744c0.32,-0.581 0.784,-0.871 1.395,-0.871c0.493,0 0.9,0.159 1.22,0.479c0.319,0.32 0.479,0.726 0.479,1.22c0,0.727 -0.232,1.598 -0.697,2.615c-0.465,1.017 -1.017,1.86 -1.656,2.528c-1.714,1.83 -3.937,2.746 -6.668,2.746c-2.964,0 -5.354,-1.046 -7.17,-3.138c-1.815,-2.092 -2.723,-4.838 -2.723,-8.237c0,-3.603 0.937,-6.487 2.811,-8.651c1.874,-2.165 4.365,-3.247 7.474,-3.247c2.324,0 4.256,0.632 5.796,1.896c1.54,1.264 2.31,2.869 2.31,4.816c0,1.075 -0.298,1.961 -0.893,2.658c-0.596,0.697 -1.358,1.046 -2.288,1.046c-0.727,0 -1.33,-0.218 -1.809,-0.654c-0.479,-0.436 -0.719,-0.973 -0.719,-1.612Z" style="fill:#f9f8f6;fill-rule:nonzero;"/><path d="M95.663,18.61l7.452,-6.974c0.262,-0.232 0.392,-0.494 0.392,-0.784c0,-0.291 -0.188,-0.436 -0.566,-0.436c-0.291,0 -0.712,0.058 -1.264,0.174c-0.552,0.117 -0.973,0.175 -1.264,0.175c-1.017,0 -1.525,-0.465 -1.525,-1.395c0,-1.017 0.639,-1.525 1.917,-1.525c0.32,0 0.727,0.029 1.221,0.087c2.004,0.232 3.53,0.349 4.576,0.349c0.581,0 1.075,-0.029 1.482,-0.088l1.786,-0.261c0.407,-0.058 0.741,-0.087 1.003,-0.087c1.424,0 2.135,0.494 2.135,1.482c0,0.929 -0.494,1.394 -1.481,1.394c-0.233,0 -0.56,-0.029 -0.981,-0.087c-0.421,-0.058 -0.748,-0.087 -0.981,-0.087c-0.726,0 -1.481,0.363 -2.266,1.089l-4.576,4.184c-0.32,0.291 -0.479,0.523 -0.479,0.698c0,0.145 0.116,0.363 0.348,0.653l5.579,7.235c1.423,1.83 2.44,2.746 3.05,2.746c0.146,0 0.385,-0.037 0.72,-0.109c0.334,-0.073 0.602,-0.109 0.806,-0.109c1.046,0 1.569,0.465 1.569,1.394c0,0.988 -0.668,1.482 -2.005,1.482c-0.523,0 -1.3,-0.058 -2.332,-0.174c-1.031,-0.116 -1.808,-0.175 -2.331,-0.175c-0.465,0 -1.141,0.059 -2.027,0.175c-0.886,0.116 -1.547,0.174 -1.983,0.174c-1.104,0 -1.656,-0.494 -1.656,-1.482c0,-0.929 0.523,-1.394 1.569,-1.394c0.291,0 0.523,0.014 0.697,0.043c0.523,0.146 0.857,0.218 1.003,0.218c0.261,0 0.392,-0.101 0.392,-0.305c0,-0.029 0,-0.072 0,-0.131c-0.029,-0.029 -0.044,-0.058 -0.044,-0.087l-0.435,-0.61l-0.567,-0.828l-4.358,-5.796c-0.291,-0.378 -0.523,-0.567 -0.698,-0.567c-0.116,0 -0.334,0.145 -0.653,0.436l-3.225,2.876l0,1.003c0,1.394 0.014,2.179 0.043,2.353c0.146,1.017 0.552,1.525 1.221,1.525c0.29,0 0.537,-0.021 0.74,-0.065c0.204,-0.043 0.48,-0.065 0.829,-0.065c0.987,0 1.481,0.479 1.481,1.438c0,0.959 -0.552,1.438 -1.656,1.438c-0.494,0 -1.242,-0.065 -2.244,-0.196c-1.003,-0.131 -1.765,-0.196 -2.288,-0.196c-0.669,0 -1.439,0.058 -2.31,0.174c-1.104,0.146 -1.845,0.218 -2.223,0.218c-1.133,0 -1.7,-0.479 -1.7,-1.438c0,-0.959 0.552,-1.438 1.657,-1.438c0.232,0 0.508,0.029 0.828,0.087c0.464,0.087 0.784,0.131 0.958,0.131c0.698,0 1.09,-0.552 1.177,-1.656l0.131,-1.7l0,-17.607c-0.058,-1.569 -0.16,-2.564 -0.305,-2.986c-0.145,-0.421 -0.451,-0.632 -0.915,-0.632c-0.146,0 -0.422,0.029 -0.828,0.088c-0.407,0.145 -0.814,0.217 -1.221,0.217c-0.959,0 -1.438,-0.45 -1.438,-1.351c0,-0.987 0.567,-1.481 1.7,-1.481c0.581,0 0.988,0.014 1.22,0.043c0.726,0.087 1.206,0.131 1.438,0.131c0.233,0 0.574,-0.036 1.024,-0.109c0.451,-0.073 0.778,-0.109 0.981,-0.109l0.305,0c0.93,0 1.395,0.596 1.395,1.787l0,16.823Z" style="fill:#f9f8f6;fill-rule:nonzero;"/><path d="M137.284,6.363c0,-2.179 -0.741,-3.269 -2.223,-3.269c-0.262,0 -0.567,0.029 -0.915,0.087c-0.523,0.088 -0.916,0.131 -1.177,0.131c-0.901,0 -1.351,-0.465 -1.351,-1.394c0,-1.017 0.654,-1.526 1.961,-1.526c0.145,0 0.334,0.015 0.567,0.044l2.31,0.305c0.871,0.116 1.801,0.174 2.789,0.174c0.813,0 1.627,-0.043 2.44,-0.131l2.833,-0.305c0.552,-0.058 1.279,-0.087 2.179,-0.087c2.644,0 4.852,0.378 6.625,1.133c2.324,0.988 4.162,2.702 5.513,5.143c1.351,2.441 2.026,5.273 2.026,8.499c0,2.847 -0.537,5.411 -1.612,7.692c-1.075,2.281 -2.542,3.959 -4.402,5.034c-2.237,1.307 -4.939,1.961 -8.106,1.961c-0.639,0 -1.293,-0.029 -1.961,-0.087l-3.007,-0.262c-1.017,-0.087 -2.078,-0.131 -3.182,-0.131c-0.959,0 -1.743,0.044 -2.353,0.131l-2.092,0.305c-0.058,0 -0.16,0.015 -0.305,0.044c-0.146,0 -0.262,0 -0.349,0c-1.249,0 -1.874,-0.509 -1.874,-1.526c0,-0.406 0.131,-0.748 0.392,-1.024c0.262,-0.276 0.581,-0.414 0.959,-0.414c0.32,0 0.712,0.044 1.177,0.131c0.203,0.058 0.508,0.087 0.915,0.087c1.482,0 2.223,-1.089 2.223,-3.269l0,-17.476Zm3.66,-0.436l0,18.435c0,1.337 0.654,2.15 1.962,2.441c0.435,0.116 1.656,0.174 3.661,0.174c3.486,0 6.014,-0.944 7.583,-2.833c1.888,-2.266 2.833,-5.258 2.833,-8.977c0,-2.906 -0.574,-5.368 -1.722,-7.388c-1.147,-2.019 -2.724,-3.319 -4.728,-3.9c-1.279,-0.378 -2.819,-0.567 -4.62,-0.567c-2.295,0 -3.697,0.131 -4.206,0.392c-0.508,0.262 -0.763,1.003 -0.763,2.223Z" style="fill:#f9f8f6;fill-rule:nonzero;"/><path d="M177.118,30.377c-3.051,0 -5.492,-1.054 -7.322,-3.16c-1.831,-2.106 -2.746,-4.932 -2.746,-8.477c0,-3.544 0.923,-6.37 2.768,-8.476c1.845,-2.107 4.322,-3.16 7.43,-3.16c3.167,0 5.666,1.031 7.496,3.094c1.831,2.063 2.746,4.867 2.746,8.412c0,3.544 -0.944,6.392 -2.833,8.542c-1.888,2.15 -4.401,3.225 -7.539,3.225Zm0.218,-20.397c-2.034,0 -3.632,0.712 -4.795,2.136c-1.162,1.424 -1.801,3.443 -1.917,6.058c0,0 0,0.189 0,0.566c0,2.731 0.574,4.874 1.721,6.429c1.148,1.554 2.753,2.331 4.816,2.331c2.121,0 3.785,-0.777 4.99,-2.331c1.206,-1.555 1.809,-3.712 1.809,-6.472c0,-5.811 -2.208,-8.717 -6.624,-8.717Z" style="fill:#f9f8f6;fill-rule:nonzero;"/><path d="M211.547,28.546l0,-1.351c-1.539,2.121 -3.82,3.182 -6.842,3.182c-3.428,0 -5.811,-1.061 -7.147,-3.182c-0.581,-0.93 -0.901,-2.019 -0.959,-3.268c-0.029,-0.611 -0.044,-1.889 -0.044,-3.836l0,-3.617c0,-3.98 -0.421,-5.971 -1.264,-5.971c-0.174,0 -0.45,0.037 -0.828,0.109c-0.377,0.073 -0.668,0.109 -0.871,0.109c-1.017,0 -1.526,-0.479 -1.526,-1.438c0,-0.93 0.625,-1.395 1.874,-1.395c0.291,0 0.719,0.029 1.286,0.088c0.567,0.058 0.995,0.087 1.286,0.087c0.261,0 0.711,-0.044 1.351,-0.131c0.436,-0.058 0.682,-0.087 0.741,-0.087c0.9,0 1.351,0.552 1.351,1.656l0,0.915l-0.044,2.833l-0.131,3.225l0,2.833c0,2.528 0.204,4.344 0.61,5.448c0.669,1.83 2.267,2.745 4.794,2.745c1.25,0 2.354,-0.283 3.313,-0.85c0.959,-0.566 1.627,-1.314 2.004,-2.244c0.465,-1.133 0.698,-3.283 0.698,-6.45l0,-2.397c0,-1.743 0,-2.688 0,-2.833c-0.145,-1.395 -0.523,-2.092 -1.133,-2.092c-0.32,0 -0.581,0.029 -0.785,0.087l-0.523,0c-1.017,0 -1.525,-0.45 -1.525,-1.351c0,-1.017 0.566,-1.525 1.7,-1.525c0.261,0 0.661,0.029 1.198,0.087c0.538,0.058 0.937,0.087 1.199,0.087c0.232,0 0.581,-0.022 1.046,-0.065c0.464,-0.044 0.813,-0.066 1.045,-0.066c0.872,0 1.308,0.465 1.308,1.395c0,0.407 -0.029,0.726 -0.087,0.959c-0.145,1.104 -0.218,2.731 -0.218,4.881l0,6.712c0,1.772 0.014,2.76 0.043,2.963c0.146,1.54 0.553,2.31 1.221,2.31c0.203,0 0.494,-0.036 0.871,-0.109c0.378,-0.073 0.669,-0.109 0.872,-0.109c0.988,0 1.482,0.48 1.482,1.438c0,0.988 -0.61,1.482 -1.831,1.482c-0.261,0 -0.639,-0.029 -1.133,-0.087c-0.726,-0.087 -1.176,-0.131 -1.351,-0.131c-0.087,0 -0.392,0.029 -0.915,0.087c-0.349,0.088 -0.654,0.131 -0.915,0.131c-0.814,0 -1.221,-0.421 -1.221,-1.264Z" style="fill:#f9f8f6;fill-rule:nonzero;"/><path d="M233.949,7.104c0.755,0 1.612,0.116 2.571,0.349c0.145,-2.848 1.801,-4.272 4.968,-4.272c1.337,0 2.455,0.349 3.356,1.046c0.901,0.698 1.351,1.584 1.351,2.659c0,0.697 -0.225,1.293 -0.675,1.787c-0.451,0.494 -0.981,0.741 -1.591,0.741c-0.465,0 -0.872,-0.16 -1.22,-0.48c-0.349,-0.319 -0.523,-0.697 -0.523,-1.133c0,-0.465 0.319,-0.944 0.958,-1.438c-0.464,-0.581 -1.06,-0.872 -1.786,-0.872c-1.54,0 -2.325,0.959 -2.354,2.877c2.208,1.482 3.312,3.472 3.312,5.971c0,2.004 -0.755,3.675 -2.266,5.011c-1.511,1.337 -3.399,2.005 -5.666,2.005c-1.598,0 -3.254,-0.377 -4.968,-1.133c-0.465,-0.203 -0.857,-0.305 -1.177,-0.305c-0.406,0 -0.77,0.182 -1.089,0.545c-0.32,0.363 -0.48,0.792 -0.48,1.285c0,1.511 1.526,2.267 4.577,2.267l0.261,0c0.233,0 0.494,-0.015 0.785,-0.044c0.29,0 0.464,0 0.523,0c2.76,0 4.997,0.262 6.711,0.785c1.598,0.494 2.862,1.264 3.792,2.309c0.93,1.046 1.394,2.223 1.394,3.531c0,2.121 -0.98,3.799 -2.941,5.033c-1.962,1.235 -4.613,1.853 -7.954,1.853c-3.341,0 -5.964,-0.581 -7.867,-1.744c-1.903,-1.162 -2.854,-2.76 -2.854,-4.794c0,-2.353 1.322,-4.024 3.966,-5.012c-2.354,-0.929 -3.53,-2.324 -3.53,-4.184c0,-2.033 1.176,-3.428 3.53,-4.183c-0.756,-1.017 -1.133,-2.209 -1.133,-3.574c0,-1.976 0.762,-3.617 2.288,-4.925c1.525,-1.307 3.435,-1.961 5.731,-1.961Zm0.13,2.876c-1.278,0 -2.368,0.378 -3.268,1.133c-0.901,0.756 -1.395,1.7 -1.482,2.833c0,0 0,0.087 0,0.262c0,1.278 0.436,2.31 1.307,3.094c0.872,0.785 2.005,1.177 3.4,1.177c1.453,0 2.637,-0.392 3.552,-1.177c0.915,-0.784 1.373,-1.787 1.373,-3.007c0,-1.249 -0.465,-2.281 -1.395,-3.094c-0.93,-0.814 -2.092,-1.221 -3.487,-1.221Zm0.044,16.91c-2.324,0 -4.155,0.349 -5.491,1.046c-1.337,0.697 -2.005,1.642 -2.005,2.833c0,1.191 0.654,2.128 1.961,2.811c1.308,0.683 3.065,1.024 5.274,1.024c2.324,0 4.162,-0.348 5.513,-1.046c1.351,-0.697 2.026,-1.627 2.026,-2.789c0,-1.22 -0.639,-2.172 -1.917,-2.855c-1.279,-0.682 -3.066,-1.024 -5.361,-1.024Z" style="fill:#f9f8f6;fill-rule:nonzero;"/><path d="M257.091,11.419l0.043,13.554c0.029,1.481 0.422,2.222 1.177,2.222c0.174,0 0.538,-0.072 1.09,-0.218c0.348,-0.058 0.581,-0.087 0.697,-0.087c0.959,0 1.438,0.494 1.438,1.482c0,0.959 -0.595,1.438 -1.787,1.438c-0.465,0 -1.206,-0.058 -2.222,-0.174c-1.017,-0.116 -1.802,-0.175 -2.354,-0.175c-0.465,0 -1.162,0.059 -2.092,0.175c-0.93,0.116 -1.612,0.174 -2.048,0.174l-0.218,0c-1.22,0 -1.831,-0.523 -1.831,-1.569c0,-0.901 0.494,-1.351 1.482,-1.351c0.058,0 0.16,0 0.305,0c0.175,0.029 0.305,0.044 0.393,0.044c0.726,0.116 1.147,0.174 1.263,0.174c0.523,0 0.85,-0.225 0.981,-0.675c0.131,-0.451 0.211,-1.62 0.24,-3.509l0.043,-3.051l0.131,-6.755l-0.043,-7.757c-0.03,-0.872 -0.073,-1.453 -0.131,-1.744c-0.204,-0.668 -0.61,-1.002 -1.221,-1.002c-0.087,0 -0.464,0.058 -1.133,0.174c-0.319,0.058 -0.581,0.087 -0.784,0.087c-0.988,0 -1.482,-0.464 -1.482,-1.394c0,-0.959 0.581,-1.438 1.743,-1.438c0.32,0 0.596,0.014 0.828,0.043l1.046,0.131c0.465,0.058 0.857,0.087 1.177,0.087c0.291,0 0.726,-0.051 1.308,-0.152c0.581,-0.102 1.016,-0.153 1.307,-0.153c0.668,0 1.002,0.421 1.002,1.264c0,0.29 -0.014,0.508 -0.043,0.654c-0.204,2.237 -0.305,5.404 -0.305,9.501Z" style="fill:#f9f8f6;fill-rule:nonzero;"/><path d="M285.376,30.202c-2.383,0 -3.85,-1.031 -4.402,-3.094c-1.482,2.179 -3.806,3.269 -6.973,3.269c-2.354,0 -4.235,-0.581 -5.644,-1.744c-1.409,-1.162 -2.114,-2.716 -2.114,-4.663c0,-2.411 1.031,-4.184 3.094,-5.317c0.785,-0.436 1.46,-0.719 2.027,-0.85c0.566,-0.13 1.707,-0.298 3.421,-0.501c2.441,-0.261 4.031,-0.625 4.772,-1.089c0.741,-0.465 1.112,-1.322 1.112,-2.572c0,-1.191 -0.414,-2.128 -1.242,-2.811c-0.828,-0.683 -1.983,-1.024 -3.465,-1.024c-1.308,0 -2.528,0.363 -3.661,1.09c-0.436,0.29 -0.654,0.595 -0.654,0.915c0,0.116 0.131,0.261 0.392,0.436c0.407,0.29 0.611,0.784 0.611,1.481c0,0.581 -0.211,1.061 -0.632,1.439c-0.422,0.377 -0.952,0.566 -1.591,0.566c-0.756,0 -1.387,-0.261 -1.896,-0.784c-0.508,-0.523 -0.763,-1.163 -0.763,-1.918c0,-1.627 0.807,-3.022 2.419,-4.184c1.613,-1.162 3.567,-1.743 5.862,-1.743c5.288,0 7.932,2.542 7.932,7.627l0,8.803c0,1.395 0.029,2.223 0.087,2.485c0.174,1.016 0.668,1.525 1.482,1.525c1.017,0 1.525,-0.93 1.525,-2.789l0,-2.136c0,-0.93 0.451,-1.395 1.351,-1.395c0.959,0 1.438,0.698 1.438,2.092l0,0.218l-0.043,2.485c-0.058,2.789 -1.54,4.183 -4.445,4.183Zm-4.838,-8.672l0.044,-3.095c-0.64,0.581 -1.315,0.988 -2.027,1.221c-0.712,0.232 -1.983,0.435 -3.813,0.61c-3.313,0.319 -4.969,1.54 -4.969,3.661c0,1.104 0.4,1.975 1.199,2.614c0.799,0.64 1.881,0.959 3.247,0.959c1.946,0 3.479,-0.53 4.597,-1.59c1.119,-1.061 1.693,-2.521 1.722,-4.38Z" style="fill:#f9f8f6;fill-rule:nonzero;"/><path d="M303.288,7.104c1.946,0 3.574,0.508 4.881,1.525l0,-0.174c0,-1.075 0.465,-1.613 1.395,-1.613c0.958,0 1.438,0.465 1.438,1.395c0,0.174 -0.029,0.61 -0.087,1.307c-0.117,0.582 -0.175,1.163 -0.175,1.744c0,0.348 0.051,0.857 0.153,1.525c0.102,0.668 0.152,1.177 0.152,1.526c0,1.104 -0.479,1.656 -1.438,1.656c-0.93,0 -1.409,-0.465 -1.438,-1.395l-0.044,-1.438c-0.029,-0.872 -0.53,-1.62 -1.503,-2.245c-0.974,-0.624 -2.114,-0.937 -3.421,-0.937c-1.337,0 -2.456,0.342 -3.356,1.024c-0.901,0.683 -1.351,1.533 -1.351,2.55c0,1.86 1.278,2.964 3.835,3.312l2.528,0.349c4.939,0.668 7.409,2.717 7.409,6.145c0,2.092 -0.799,3.784 -2.397,5.077c-1.598,1.293 -3.69,1.94 -6.276,1.94c-2.412,0 -4.504,-0.683 -6.276,-2.049c0.029,0.291 0.044,0.567 0.044,0.828c0,1.046 -0.494,1.569 -1.482,1.569c-1.075,0 -1.613,-0.595 -1.613,-1.786c0,0.203 0.087,-0.553 0.262,-2.267c0.058,-0.407 0.087,-0.813 0.087,-1.22c0,-0.697 -0.058,-1.351 -0.174,-1.961c-0.117,-0.61 -0.175,-1.09 -0.175,-1.438c0,-1.017 0.465,-1.526 1.395,-1.526c0.61,0 0.995,0.145 1.155,0.436c0.16,0.291 0.254,1.06 0.283,2.31c0.029,1.249 0.683,2.266 1.961,3.051c1.279,0.784 2.906,1.176 4.882,1.176c1.423,0 2.6,-0.363 3.53,-1.089c0.929,-0.727 1.394,-1.642 1.394,-2.746c0,-1.976 -1.569,-3.123 -4.707,-3.443c-2.992,-0.32 -5.273,-0.908 -6.842,-1.765c-1.569,-0.857 -2.353,-2.361 -2.353,-4.511c0,-2.034 0.77,-3.682 2.309,-4.946c1.54,-1.264 3.545,-1.896 6.015,-1.896Z" style="fill:#f9f8f6;fill-rule:nonzero;"/></svg>